<?xml version="1.0" encoding="iso-8859-1"?>
<!-- Uploaded to: SVG Repo, www.svgrepo.com, Generator: SVG Repo Mixer Tools -->
<svg height="800px" width="800px" version="1.1" id="Capa_1" xmlns="http://www.w3.org/2000/svg" xmlns:xlink="http://www.w3.org/1999/xlink" 
	 viewBox="0 0 52.75 52.75" xml:space="preserve">
<g>
	<path style="fill:#010002;" d="M41.125,23.602c-3.097,0-6.118,1.275-8.298,3.5h-3.083l-0.604-1.677
		c-0.187-0.521-0.785-0.941-1.338-0.941h-0.714c-0.13-0.585-1.037-5.317,2.942-7.875c4.854-3.12,6.815-9.479,6.897-9.747
		c0.058-0.192,0.038-0.394-0.057-0.57c-0.094-0.177-0.252-0.306-0.444-0.364c-0.395-0.117-0.816,0.111-0.935,0.501
		c-0.019,0.061-1.882,6.097-6.271,8.919c-4.29,2.758-3.878,7.688-3.65,9.137h-1.268c-0.553,0-1.098,0.437-1.219,0.976l-0.369,1.643
		h-2.792c-1.314-1.34-2.935-2.328-4.691-2.908c-0.07-0.201-0.188-0.387-0.38-0.513c-4.085-2.679-8.054-0.634-9.581,0.822
		c-0.318,0.303-0.382,0.76-0.208,1.137C2.008,27.74,0,31.252,0,35.229c0,6.408,5.215,11.623,11.625,11.623
		c2.325,0,4.572-0.691,6.502-2h16.496c1.93,1.309,4.177,2,6.502,2c6.41,0,11.625-5.215,11.625-11.625S47.535,23.602,41.125,23.602z
		 M41.126,44.602c-1.978,0-3.875-0.617-5.487-1.786l-0.295-0.214H17.407l-0.295,0.214c-1.612,1.169-3.51,1.786-5.487,1.786
		c-5.169,0-9.375-4.206-9.375-9.375s4.206-9.375,9.375-9.375c2.65,0,5.191,1.14,6.974,3.126l0.335,0.374h14.883l0.335-0.374
		c1.782-1.986,4.323-3.126,6.974-3.126c5.169,0,9.375,4.206,9.375,9.375C50.501,40.396,46.295,44.602,41.126,44.602z M17.625,35.727
		c0,0.276-0.224,0.5-0.5,0.5h-5v5c0,0.276-0.224,0.5-0.5,0.5c-0.276,0-0.5-0.224-0.5-0.5v-5h-5c-0.276,0-0.5-0.224-0.5-0.5
		s0.224-0.5,0.5-0.5h5v-5c0-0.276,0.224-0.5,0.5-0.5c0.276,0,0.5,0.224,0.5,0.5v5h5C17.402,35.227,17.625,35.45,17.625,35.727z
		 M40.625,33.977c1.379,0,2.5-1.121,2.5-2.5c0-1.379-1.121-2.5-2.5-2.5s-2.5,1.121-2.5,2.5
		C38.125,32.856,39.246,33.977,40.625,33.977z M40.625,29.977c0.827,0,1.5,0.673,1.5,1.5c0,0.827-0.673,1.5-1.5,1.5
		s-1.5-0.673-1.5-1.5C39.125,30.65,39.798,29.977,40.625,29.977z M36.21,33.311c-1.379,0-2.5,1.121-2.5,2.5s1.121,2.5,2.5,2.5
		s2.5-1.121,2.5-2.5C38.71,34.432,37.589,33.311,36.21,33.311z M36.21,37.311c-0.827,0-1.5-0.673-1.5-1.5s0.673-1.5,1.5-1.5
		s1.5,0.673,1.5,1.5S37.037,37.311,36.21,37.311z M40.625,37.644c-1.379,0-2.5,1.121-2.5,2.5s1.121,2.5,2.5,2.5s2.5-1.121,2.5-2.5
		C43.125,38.765,42.004,37.644,40.625,37.644z M40.625,41.644c-0.827,0-1.5-0.673-1.5-1.5s0.673-1.5,1.5-1.5s1.5,0.673,1.5,1.5
		S41.452,41.644,40.625,41.644z M45.126,33.311c-1.379,0-2.5,1.121-2.5,2.5s1.121,2.5,2.5,2.5s2.5-1.121,2.5-2.5
		C47.626,34.432,46.505,33.311,45.126,33.311z M45.126,37.311c-0.827,0-1.5-0.673-1.5-1.5s0.673-1.5,1.5-1.5s1.5,0.673,1.5,1.5
		S45.953,37.311,45.126,37.311z M30.928,32.239H20.553c-0.827,0-1.5,0.673-1.5,1.5v4.354c0,0.827,0.673,1.5,1.5,1.5h10.375
		c0.827,0,1.5-0.673,1.5-1.5v-4.354C32.428,32.912,31.755,32.239,30.928,32.239z M31.428,38.093c0,0.275-0.225,0.5-0.5,0.5H20.553
		c-0.275,0-0.5-0.225-0.5-0.5v-4.354c0-0.275,0.225-0.5,0.5-0.5h10.375c0.275,0,0.5,0.225,0.5,0.5V38.093z"/>
</g>
</svg>