<?xml version="1.0" ?>
<!-- Uploaded to: SVG Repo, www.svgrepo.com, Generator: SVG Repo Mixer Tools -->
<svg fill="#000000" width="800px" height="800px" viewBox="0 0 512 512" id="icon" version="1.1" xml:space="preserve" xmlns="http://www.w3.org/2000/svg" xmlns:xlink="http://www.w3.org/1999/xlink">
<g>
<path d="M139.7467957,281.9538879c20.6360016,0,40.0485077-7.5382996,55.2207031-21.3317871   c15.1697998,13.7934875,34.5823059,21.3317871,55.2183075,21.3317871c22.2086945,0,43.305191-8.9454956,58.7595978-24.7362976   c15.4569092,15.790802,36.5534058,24.7362976,58.762207,24.7362976c24.2136841,0,47.1054993-10.6322937,62.802887-29.175293   c1.8911133-2.2350922,1.6144104-5.5775909-0.6209106-7.4711914c-2.2297974-1.8780975-5.5746765-1.6141968-7.4657898,0.6208954   c-13.6820984,16.1633148-33.625,25.4293976-54.7161865,25.4293976c-21.091217,0-41.0339966-9.2660828-54.718811-25.4293976   c-1.953186-2.3101044-5.8034973-2.3215942-7.8709106-0.1576996c-7.1832886-14.030304-14.2733765-30.4579926-17.4707031-49.1645966   c-1.1461792-6.6847992-2.786377-22.6721039,6.6690063-26.6921082c4.3383179-1.8421021,9.2769165-1.9557953,14.5050964-2.0800934   c4.6434021-0.1085968,9.4421997-0.2169952,14.3186035-1.510498c13.302002-3.5286102,25.8462219-11.527298,35.3193054-22.5167999   c11.0487976-12.8106079,19.2753906-30.4380035,23.1632996-49.6277008c0.7529907-3.7046051,1.2652893-7.0105057,1.5706177-10.104805   c0.2094727-2.1261978-0.8823242-4.169899-2.765625-5.1786957c-1.8778992-1.0140991-4.1933899-0.8022003-5.8516846,0.5531998   c-0.2196045,0.1761017-22.2838135,17.8603973-47.0847168,17.8603973c-4.9385986,0-11.1081848-1.0398026-17.6402893-2.1418991   c-17.9482117-3.0268021-39.8309937-6.7157974-53.8496094,8.2109985   c-14.0134888-14.926796-35.8988953-11.242897-53.8522949-8.2109985   c-6.5319977,1.1020966-12.6991882,2.1418991-17.6376953,2.1418991c-24.8009949,0-46.8650055-17.6842957-47.0847931-17.8603973   c-1.6557007-1.3501053-3.9710999-1.5672989-5.8516998-0.5531998c-1.8833008,1.0087967-2.9751129,3.0524979-2.7654114,5.1786957   c0.3052979,3.1096039,0.8175049,6.415802,1.5678101,10.104805c3.8905945,19.1896973,12.1169891,36.8170929,23.1633911,49.6277008   c9.478302,10.989502,22.0225067,18.9881897,35.3220062,22.5167999c4.8735962,1.2935028,9.6750946,1.4019012,14.3184967,1.510498   c5.228302,0.1242981,10.1669006,0.2379913,14.5050964,2.0800934c9.4499969,4.0200043,7.8125,20.007309,6.6690063,26.6921082   c-3.7075958,21.6790009-12.3878021,39.9691925-21.486496,56.7805023c-1.3945007-1.2341003-2.7861023-2.4743042-4.0983124-3.8261108   c-0.9984894-1.0295868-2.3695984-1.6088867-3.8027954-1.6088867c-1.4329987,0-2.804306,0.5792999-3.800293,1.6088867   c-13.6460114,14.057312-31.9072113,21.7973022-51.4204102,21.7973022c-19.0267944,0-36.9569931-7.3881836-50.4838943-20.8090973   c-2.0774002-2.0643921-5.4353027-2.0541992-7.4917984,0.0310059c-2.0619049,2.0747986-2.0465012,5.4326935,0.0309982,7.491684   C97.3263016,273.4739075,117.9055023,281.9538879,139.7467957,281.9538879z M234.8011017,198.3961029   c3.3605042-19.6708984-1.2442017-33.247406-12.9709015-38.2297974c-6.2057953-2.6387024-12.406601-2.7837067-18.4031982-2.9233093   c-4.2089996-0.0981903-8.1878052-0.191391-11.8482971-1.164093c-11.2557068-2.9853058-21.9166107-9.8043976-30.0136108-19.1950989   c-9.3491974-10.8391037-16.468399-25.6779022-20.2038879-42.0271072   c9.8895874,5.8255005,25.6804962,13.0484009,43.1499939,13.0484009c5.8256989,0,12.4199066-1.1122971,19.3993988-2.2868958   c18.6311035-3.1509018,37.9038086-6.3950043,47.5865936,9.2558975c1.9300079,3.1149979,7.0753174,3.1149979,9.0104065,0   c9.6855164-15.6457977,28.9580994-12.4019012,47.5815125-9.2558975c6.9821777,1.1745987,13.5762024,2.2868958,19.4019775,2.2868958   c17.4696045,0,33.2575073-7.2229004,43.1473999-13.0431976c-3.7330017,16.3440018-10.8520813,31.1828003-20.2038879,42.021904   c-8.0945129,9.3907013-18.752594,16.2097931-30.0109863,19.1950989c-3.6629028,0.972702-7.6394043,1.0659027-11.8506165,1.164093   c-5.9942017,0.1396027-12.1950073,0.2846069-18.401001,2.9233093   c-11.7294006,4.9823914-16.3338928,18.5588989-12.9710083,38.2297974   c3.6674194,21.4391937,11.9653015,39.7855988,20.0362244,55.1817932   c-12.9850159,11.3516083-29.5951233,17.7798004-47.0514069,17.7798004c-13.9986115,0-27.3191071-4.0444031-38.7854004-11.4858093   C221.207901,241.8811951,230.7187042,222.2539978,234.8011017,198.3961029z"/>
<path d="M422.4237976,296.5237122c-13.6820984,16.1629028-33.625,25.4296875-54.7161865,25.4296875   c-21.091217,0-41.0339966-9.2667847-54.718811-25.4296875c-2.0126953-2.380127-6.0740967-2.369812-8.086792,0   c-13.682312,16.1629028-33.625,25.4296875-54.7162018,25.4296875c-19.5131989,0-37.7717133-7.7402039-51.4155121-21.7977905   c-0.9984894-1.0296021-2.3695984-1.6092224-3.8027954-1.6092224c-1.4329987,0-2.804306,0.5796204-3.800293,1.6092224   c-13.6460114,14.0575867-31.9072113,21.7977905-51.4204102,21.7977905c-19.0267944,0-36.9569931-7.3883972-50.4838943-20.8095093   c-2.0774002-2.0643005-5.4353027-2.0541992-7.4917984,0.0310059c-2.0619049,2.074707-2.0465012,5.4326172,0.0309982,7.4919128   c15.5242004,15.4022827,36.1034012,23.8825989,57.9446945,23.8825989c20.6360016,0,40.0485077-7.5384216,55.2207031-21.3321228   c15.1697998,13.7937012,34.5823059,21.3321228,55.2183075,21.3321228c22.2086945,0,43.305191-8.9458008,58.7595978-24.7364197   c15.4569092,15.7906189,36.5534058,24.7364197,58.762207,24.7364197c24.2136841,0,47.1054993-10.6324158,62.802887-29.1755981   c1.8911133-2.2351074,1.6144104-5.5774231-0.6209106-7.4712219   C427.65979,294.0195923,424.3149109,294.2886047,422.4237976,296.5237122z"/>
<path d="M422.4237976,347.118988c-13.6820984,16.1630249-33.625,25.4294128-54.7161865,25.4294128   c-21.091217,0-41.0339966-9.2663879-54.718811-25.4294128c-2.0126953-2.380188-6.0740967-2.3696899-8.086792,0   c-13.682312,16.1630249-33.625,25.4294128-54.7162018,25.4294128c-19.5131989,0-37.7717133-7.7402039-51.4155121-21.7973938   c-0.9984894-1.0298157-2.3695984-1.6091003-3.8027954-1.6091003c-1.4329987,0-2.804306,0.5792847-3.800293,1.6091003   c-13.6460114,14.0571899-31.9072113,21.7973938-51.4204102,21.7973938c-19.0267944,0-36.9569931-7.3882141-50.4838943-20.8092957   c-2.0774002-2.0645142-5.4353027-2.0540161-7.4917984,0.031189c-2.0619049,2.074707-2.0465012,5.4326172,0.0309982,7.4915161   c15.5242004,15.4028015,36.1034012,23.882782,57.9446945,23.882782c20.6360016,0,40.0485077-7.5382996,55.2207031-21.3317871   c15.1697998,13.7934875,34.5823059,21.3317871,55.2183075,21.3317871c22.2086945,0,43.305191-8.9455872,58.7595978-24.7362976   c15.4569092,15.7907104,36.5534058,24.7362976,58.762207,24.7362976c24.2136841,0,47.1054993-10.6322937,62.802887-29.1755981   c1.8911133-2.2351074,1.6144104-5.577301-0.6209106-7.4708862   C427.65979,344.6148071,424.3149109,344.883606,422.4237976,347.118988z"/>
<path d="M422.4237976,397.7142029c-13.6820984,16.1630859-33.625,25.4293823-54.7161865,25.4293823   c-21.091217,0-41.0339966-9.2662964-54.718811-25.4293823c-2.0126953-2.380188-6.0740967-2.3696899-8.086792,0   c-13.682312,16.1630859-33.625,25.4293823-54.7162018,25.4293823c-19.5131989,0-37.7717133-7.7399902-51.4155121-21.7975769   c-0.9984894-1.0292969-2.3695984-1.6089172-3.8027954-1.6089172c-1.4329987,0-2.804306,0.5796204-3.800293,1.6089172   c-13.6460114,14.0575867-31.9072113,21.7975769-51.4204102,21.7975769c-19.0267944,0-36.9569931-7.3881836-50.4838943-20.809082   c-2.0774002-2.0643921-5.4353027-2.0541992-7.4917984,0.0307922c-2.0619049,2.074707-2.0465012,5.4326172,0.0309982,7.4919128   c15.5242004,15.4025879,36.1034012,23.8825989,57.9446945,23.8825989c20.6360016,0,40.0485077-7.5382996,55.2207031-21.3320007   c15.1697998,13.7937012,34.5823059,21.3320007,55.2183075,21.3320007c22.2086945,0,43.305191-8.9456177,58.7595978-24.7362976   c15.4569092,15.7906799,36.5534058,24.7362976,58.762207,24.7362976c24.2136841,0,47.1054993-10.6322937,62.802887-29.1755066   c1.8911133-2.2348938,1.6144104-5.5773926-0.6209106-7.4710083   C427.65979,395.2099915,424.3149109,395.4790955,422.4237976,397.7142029z"/>
</g>
</svg>